<?xml version="1.0" encoding="UTF-8" standalone="no"?>
<!-- Created with Inkscape (http://www.inkscape.org/) -->

<svg
   width="210mm"
   height="297mm"
   viewBox="0 0 210 297"
   version="1.1"
   id="svg5"
   xml:space="preserve"
   inkscape:version="1.2.2 (732a01da63, 2022-12-09)"
   sodipodi:docname="blk - majora mask (draft).svg"
   xmlns:inkscape="http://www.inkscape.org/namespaces/inkscape"
   xmlns:sodipodi="http://sodipodi.sourceforge.net/DTD/sodipodi-0.dtd"
   xmlns="http://www.w3.org/2000/svg"
   xmlns:svg="http://www.w3.org/2000/svg"><sodipodi:namedview
     id="namedview7"
     pagecolor="#505050"
     bordercolor="#eeeeee"
     borderopacity="1"
     inkscape:showpageshadow="0"
     inkscape:pageopacity="0"
     inkscape:pagecheckerboard="0"
     inkscape:deskcolor="#505050"
     inkscape:document-units="mm"
     showgrid="false"
     inkscape:zoom="0.63118804"
     inkscape:cx="-91.890207"
     inkscape:cy="708.98048"
     inkscape:window-width="1947"
     inkscape:window-height="1360"
     inkscape:window-x="2218"
     inkscape:window-y="0"
     inkscape:window-maximized="0"
     inkscape:current-layer="layer1"
     showguides="true"><sodipodi:guide
       position="104.26123,59.281439"
       orientation="1,0"
       id="guide857"
       inkscape:locked="false" /></sodipodi:namedview><defs
     id="defs2" /><g
     inkscape:label="Layer 1"
     inkscape:groupmode="layer"
     id="layer1"><path
       id="path948-90"
       style="fill:none;stroke:#ff6600;stroke-width:0.238893"
       d="m 123.10965,199.09554 c 1e-5,2.22133 1.83835,4.02208 4.10606,4.02208 2.2677,0 4.10604,-1.80075 4.10605,-4.02208 0,-2.22134 -1.83835,-4.02209 -4.10605,-4.02209 -2.26771,0 -4.10606,1.80075 -4.10606,4.02209 h 2.66065 c 0,0.78876 0.64713,1.42817 1.44541,1.42817 0.79827,0 1.4454,-0.63941 1.4454,-1.42817 0,-0.78876 -0.64713,-1.42818 -1.4454,-1.42818 -0.79828,0 -1.44541,0.63941 -1.44541,1.42817 z"
       sodipodi:nodetypes="csssccssscc" /><path
       style="fill:none;stroke:#ff6600;stroke-width:0.2"
       d="m 110.16152,171.01125 c -1.34734,0.59856 -3.39074,1.88866 -5.90029,1.88866 -2.81892,0 -12.936979,-5.39112 -18.276304,-9.36612 L 75.452951,138.12081 c -2.545513,7.23981 -3.185656,16.23328 -3.615455,25.62257 -7.120482,1.36137 -12.013021,5.78288 -15.444539,11.74695 3.519218,2.07595 7.650014,-1.22065 11.541515,-4.24171 l 0.601959,8.31892 -4.558616,-0.10479 c 1.1624,-2.84651 2.505632,-5.02998 4.087035,-6.34015 l -0.130378,-1.87398 c 1.435107,-1.1141 2.837669,-2.19073 4.165014,-2.94662 4.13164,-2.35285 12.058183,3.12344 20.287607,6.67474 l -2.62952,3.85723 c -2.101436,-2.05727 -4.309527,-3.36795 -6.549735,-4.45382 -2.407794,1.16274 -4.019374,2.72359 -5.606574,4.29663 l 0.157194,-2.72469 c -2.113381,1.78005 -4.226763,3.1974 -6.340144,4.13943 -0.473976,-3.01486 -0.449082,-5.97984 0.471581,-8.85524 2.138388,0.90387 4.147913,2.28023 5.868563,4.71581 l -0.157194,2.72469 c 4.505134,0.59603 8.333647,0.38012 12.156309,0.15719 l 2.62952,-3.85723 c 2.311481,-1.09278 3.680197,-2.73119 4.873912,-4.66229 -1.593755,-0.68367 -3.152534,-1.66041 -4.894445,-2.66508 -0.744016,2.12216 -7.855716,3.47239 -7.691581,2.11977 3.492327,-0.88424 5.674096,-2.88369 5.549245,-3.3831 -1.448081,-0.88079 -2.865272,-1.82335 -4.239298,-2.85225 -4.251484,3.65181 -8.91836,4.09916 -14.14743,0.20959 -6.309885,1.32821 -11.814538,5.06634 -15.444539,11.74695 -3.222618,5.93087 -3.864341,16.30439 0.220814,24.88093 1.480212,3.27687 3.180533,6.47683 5.006227,9.70435 -9.954027,4.18521 -17.784961,6.41916 -23.828082,7.04265 5.516917,-6.65708 10.37883,-11.73017 18.821855,-16.747 2.198045,4.97783 4.35768,8.68961 7.043395,13.11011 -5.838636,5.73349 -10.891811,12.3048 -15.248533,19.619 6.527494,-1.80749 14.892709,-4.81533 23.791416,-9.19163 l 1.141811,1.21027 c -4.451595,6.39554 -8.74821,13.42159 -12.641318,21.21334 7.858079,-3.35125 15.583785,-7.35007 22.882954,-11.81914 -7.775576,-6.29801 -14.733381,-13.56186 -20.532938,-22.0335 10.013811,9.10482 26.002974,3.40894 28.504118,12.13651 1.854158,6.46996 -11.098503,7.27222 -11.098503,7.27222 0,0 12.782028,10.48896 16.276214,13.42357 -5.68283,4.41324 -11.867939,7.9321 -18.528547,10.80884 1.91069,-7.29891 4.342111,-13.82784 7.370622,-20.00893 14.054215,6.40595 22.645108,-23.10793 -1.098415,-19.88288 -21.777841,2.95806 -27.862276,-21.29944 -22.40523,-33.503 l 3.297404,3.65578 c 9.54144,1.58093 15.94622,-2.35983 22.03801,2.2439 2.89579,2.18842 5.80887,6.81633 6.23074,14.85781 0.1966,3.74739 2.44536,10.37425 2.44536,10.37425 -3.6051,-2.22305 -7.00522,-2.27255 -8.81811,-2.22305 -6.02988,0.16474 -12.0712,-0.58057 -15.33907,-4.0936 -2.31419,-2.2501 -3.75658,-5.42716 -3.75658,-8.94833 0,-6.82203 5.41423,-12.35237 12.09302,-12.35237 6.67879,0 12.09301,5.53035 12.09301,12.35237 0,6.82202 -5.41422,12.35237 -12.09301,12.35237 -3.23155,0 -6.16705,-1.29473 -8.33644,-3.40404 -8.19003,-8.35615 -4.6183,-16.40457 -6.55693,-21.15931 l -3.297404,-3.65578 c 1.586349,-2.26559 6.988748,-0.31709 13.382134,-1.3698 5.480745,-0.90245 9.898748,-0.57686 11.838963,-0.54786 9.429529,0.61056 12.3009,19.73356 12.3009,22.08234 0,7.90998 2.211506,7.89688 4.668416,7.89688 2.45691,0 4.81662,0.0131 4.81662,-7.89687 0,-2.34879 2.87137,-21.47178 12.3009,-22.08234 1.94021,-0.029 6.35822,-0.35459 11.83896,0.54785 6.39339,1.05271 11.79579,-0.89579 13.38213,1.3698 l -3.2974,3.65578 c -1.93863,4.75474 1.6331,12.80316 -6.55693,21.15931 -2.16939,2.10931 -5.10489,3.40405 -8.33644,3.40405 -6.67879,0 -12.09301,-5.53035 -12.09301,-12.35238 0,-6.82202 5.41422,-12.35237 12.09301,-12.35237 6.67879,0 12.09302,5.53034 12.09302,12.35237 0,3.52118 -1.44239,6.69823 -3.75658,8.94833 -3.26787,3.51303 -9.30919,4.25834 -15.33907,4.09361 -1.81289,-0.0495 -5.21301,0 -8.81811,2.22305 0,0 2.24876,-6.62686 2.44536,-10.37425 0.42187,-8.04148 3.33495,-12.66939 6.23074,-14.85781 6.09179,-4.60373 12.49657,-0.66297 22.03801,-2.2439 l 3.2974,-3.65578 c 5.45705,12.20356 -0.62738,36.46106 -22.40523,33.503 -23.74352,-3.22505 -15.11676,26.3369 -1.06255,19.93095 3.02851,6.18109 5.42407,12.66195 7.33476,19.96086 -6.66061,-2.87674 -12.58858,-6.63601 -18.27141,-11.04925 l 7.06217,-5.77048 c -8.39598,-1.76481 -11.49076,-5.75807 -11.89432,-14.51421 -0.21371,-4.63693 -0.0741,-5.58801 -3.10203,-5.58801 -3.25981,0 -3.18571,2.33401 -3.18571,5.53561 0,9.88443 -4.033902,13.32465 -11.670915,14.49178 l 14.856625,12.3384 c 3.49418,-2.93461 24.04692,-19.67626 24.04692,-19.67626 0,0 -13.04632,-0.80225 -11.19216,-7.27221 2.50114,-8.72757 18.4903,-3.03169 28.50411,-12.13651 -5.79955,8.47164 -12.6849,15.78071 -20.46048,22.07872 7.29917,4.46907 14.95242,8.42267 22.8105,11.77392 -3.89311,-7.79175 -8.11604,-14.75895 -12.56763,-21.15449 l 1.07962,-1.22305 c 8.89871,4.3763 17.25243,7.33807 23.77992,9.14556 -4.35672,-7.3142 -9.4099,-13.88551 -15.24853,-19.619 2.68571,-4.4205 4.84535,-8.13228 7.04339,-13.11011 8.44303,5.01683 13.30494,10.08992 18.82186,16.747 -6.04313,-0.62349 -13.88329,-2.84164 -23.83732,-7.02685 1.74104,-3.11545 3.51221,-6.17668 5.01546,-9.72015 4.08516,-8.57654 3.44343,-18.95006 0.22081,-24.88093 -3.63,-6.68061 -9.13465,-10.41874 -15.44453,-11.74695 -5.22907,3.88957 -9.89595,3.44222 -14.14743,-0.20959 -1.40906,0.85258 -2.86859,1.78349 -4.34737,2.71885 -0.12485,0.49941 2.16499,2.63226 5.65731,3.5165 0.16414,1.35262 -7.02481,-0.0822 -7.76882,-2.2044 l -4.80812,2.79546 c 1.19372,1.9311 2.55335,3.52376 4.86483,4.61654 l 2.62952,3.85723 c 3.82266,0.22293 7.65117,0.43884 12.15631,-0.15719 l -0.1572,-2.72469 c 1.72065,-2.43558 3.73018,-3.81194 5.86857,-4.71581 0.92066,2.8754 0.94555,5.84038 0.47158,8.85524 -2.11338,-0.94203 -4.22677,-2.35938 -6.34015,-4.13943 l 0.1572,2.72469 c -1.5872,-1.57304 -3.19878,-3.13389 -5.60658,-4.29663 -2.2402,1.08587 -4.4483,2.39655 -6.54973,4.45382 l -2.62952,-3.85723 c 8.22942,-3.5513 16.15597,-9.02759 20.28761,-6.67474 1.32734,0.75589 2.7299,1.83252 4.16501,2.94662 l -0.13038,1.87398 c 1.5814,1.31017 2.92464,3.49364 4.08704,6.34015 l -4.55862,0.10479 0.60196,-8.31892 c 3.8915,3.02106 8.0223,6.31766 11.54151,4.24171 -3.31492,-5.98737 -8.43806,-10.34974 -15.44453,-11.74695 -0.4298,-9.38929 -1.06995,-18.38276 -3.61546,-25.62257 l -10.53197,25.41298 c -6.09032,3.73593 -14.39543,9.46333 -18.42451,9.36611 -1.55062,-0.0374 -3.84256,-0.96902 -5.725921,-1.94414 -2.022891,2.5817 -1.217762,6.41449 2.068621,11.23167 l -4.925396,-0.41918 c 0.843967,0.95778 5.371346,7.44496 5.763776,23.00267 0.053,2.10082 1.10857,3.7399 2.81892,3.7399 1.71035,0 2.91412,-1.63908 2.96712,-3.7399 0.39243,-15.55771 4.91981,-22.04489 5.76377,-23.00267 l -4.92539,0.41918 c 3.28638,-4.81718 4.11768,-8.59449 2.09479,-11.17619"
       id="path760-1"
       sodipodi:nodetypes="cscccccccccscccccccccccccccccscccccccccccsccccsccsscccsssscccscssscscccsssscscssccsccccssscccscccccccccccscccccccccccccccccscccccccccscccsssccc" /><path
       id="path948"
       style="fill:none;stroke:#ff6600;stroke-width:0.238893"
       d="m 85.464396,199.09554 c -5e-6,2.22133 -1.838345,4.02208 -4.106051,4.02208 -2.267706,0 -4.106046,-1.80075 -4.106051,-4.02208 -1e-6,-2.22134 1.838341,-4.02209 4.106051,-4.02209 2.26771,0 4.106052,1.80075 4.106051,4.02209 l -2.660648,0 c -10e-7,0.78876 -0.64713,1.42817 -1.445403,1.42817 -0.798273,0 -1.445402,-0.63941 -1.445403,-1.42817 -4e-6,-0.78876 0.647126,-1.42818 1.445403,-1.42818 0.798277,0 1.445407,0.63941 1.445403,1.42817 z"
       sodipodi:nodetypes="csssccssscc" /></g></svg>
