<?xml version="1.0" encoding="UTF-8" standalone="no"?>
<!-- Created with Inkscape (http://www.inkscape.org/) -->

<svg
   width="210mm"
   height="297mm"
   viewBox="0 0 210 297"
   version="1.1"
   id="svg5"
   xml:space="preserve"
   inkscape:version="1.2 (dc2aedaf03, 2022-05-15)"
   sodipodi:docname="star and spirals.svg"
   xmlns:inkscape="http://www.inkscape.org/namespaces/inkscape"
   xmlns:sodipodi="http://sodipodi.sourceforge.net/DTD/sodipodi-0.dtd"
   xmlns="http://www.w3.org/2000/svg"
   xmlns:svg="http://www.w3.org/2000/svg"><sodipodi:namedview
     id="namedview7"
     pagecolor="#ffffff"
     bordercolor="#000000"
     borderopacity="0.25"
     inkscape:showpageshadow="2"
     inkscape:pageopacity="0.0"
     inkscape:pagecheckerboard="0"
     inkscape:deskcolor="#d1d1d1"
     inkscape:document-units="mm"
     showgrid="false"
     inkscape:zoom="0.35355339"
     inkscape:cx="1271.378"
     inkscape:cy="127.27922"
     inkscape:window-width="2560"
     inkscape:window-height="1369"
     inkscape:window-x="1912"
     inkscape:window-y="-8"
     inkscape:window-maximized="1"
     inkscape:current-layer="layer1" /><defs
     id="defs2"><inkscape:path-effect
       effect="bspline"
       id="path-effect1489"
       is_visible="true"
       lpeversion="1"
       weight="33.333333"
       steps="2"
       helper_size="0"
       apply_no_weight="true"
       apply_with_weight="true"
       only_selected="false" /><inkscape:path-effect
       effect="bspline"
       id="path-effect1434"
       is_visible="true"
       lpeversion="1"
       weight="33.333333"
       steps="2"
       helper_size="0"
       apply_no_weight="true"
       apply_with_weight="true"
       only_selected="false" /><inkscape:path-effect
       effect="bspline"
       id="path-effect1430"
       is_visible="true"
       lpeversion="1"
       weight="33.333333"
       steps="2"
       helper_size="0"
       apply_no_weight="true"
       apply_with_weight="true"
       only_selected="false" /><inkscape:path-effect
       effect="bspline"
       id="path-effect1426"
       is_visible="true"
       lpeversion="1"
       weight="33.333333"
       steps="2"
       helper_size="0"
       apply_no_weight="true"
       apply_with_weight="true"
       only_selected="false" /><inkscape:path-effect
       effect="bspline"
       id="path-effect1422"
       is_visible="true"
       lpeversion="1"
       weight="33.333333"
       steps="2"
       helper_size="0"
       apply_no_weight="true"
       apply_with_weight="true"
       only_selected="false" /></defs><g
     inkscape:label="Layer 1"
     inkscape:groupmode="layer"
     id="layer1"><g
       id="g10966" /><path
       d="m -110.68701,164.60706 c 6.26995,2.48555 12.54805,3.88537 16.25123,4.49272 2.48813,0.39394 7.09064,1.85134 8.33705,-0.42921 3.84095,-5.85007 7.59327,-9.21829 11.52287,-10.9024 l 3.73576,-1.61251 c 15.40904,12.93602 32.54651,3.57969 34.65992,0.25071 -4.9932,-1.35798 -7.91808,-2.08922 -14.41551,-2.75775 l 11.5951,-20.24441 c 4.90963,6.49743 6.49742,8.04344 10.59227,10.65496 3.36362,-11.80403 -3.23827,-25.42566 -18.11343,-29.58317 l 4.82607,13.162 -11.53242,19.80567 -12.03382,-19.24159 4.88874,-13.60073 c -12.47257,3.50987 -20.49512,15.10496 -17.98808,28.83105 3.92772,-3.23827 6.91527,-4.97232 10.2789,-10.46693 l 11.97116,20.30709 c -5.59908,0.2716 -10.32068,1.23264 -14.7289,2.8831 l -3.73576,1.61251 c 12.58653,12.97063 33.15044,10.51832 43.07785,-0.7091 9.95693,2.45231 21.24345,-3.95915 20.5639,-7.26829 -3.95914,-0.50227 -9.15922,-0.91591 -14.00473,-3.90005 4.37279,-17.04795 -5.08189,-31.5254 -22.77984,-35.72092 -2.68869,-11.168334 -4.31369,-21.007094 -5.93872,-31.377684 -0.70909,11.02059 -3.01367,21.15482 -5.58417,31.732234 -19.4707,3.92959 -26.70944,22.21847 -22.24801,35.98684 -6.52122,11.5566 -7.00637,26.09119 -0.33019,35.36225 6.31529,9.31677 21.54551,9.43424 35.62918,8.74971 26.42782,-0.89501 43.48282,-24.21269 43.69546,-48.70544 0.4745446,-11.84562 -4.5308093,-37.33097 7.5465241,-41.04942 15.3538089,-4.149912 17.1989669,10.76077 8.0448129,17.02506 -10.8721391,5.77449 -19.2666281,-0.83878 -25.608017,-11.46676 -6.7445,-11.709034 -15.13074,-21.606334 -25.35584,-28.642184 -11.56743,-6.80933 -21.54877,-10.61992 -33.70584,-11.19727 -12.99353,-0.71702 -26.93319,1.45621 -36.20663,9.65182 -14.31983,13.57337 1.68379,27.968924 15.832468,20.903703 10.333,-4.427768 18.662342,-12.15534 18.942975,-27.928771 0.0546,-3.27866 1.969531,-21.482633 1.777343,-25.012423 0.04848,-5.526823 1.181598,-16.722351 -10.697719,-26.577366 -14.75415,-10.4159498 -33.474887,7.823662 -23.868977,19.925402 8.494925,10.622058 20.265869,16.103925 34.805372,17.5696 21.79581,1.43984 45.191768,0.133695 61.419198,-13.980185 13.62399,-11.29461 -0.2507551,-33.5737515 -18.954175,-23.828191 -9.58277,5.56984 -6.398256,23.750678 -4.056276,37.067398 2.54974,15.81369 14.499551,33.702773 32.581851,29.378413 C 23.86019,75.603555 15.055301,50.56467 25.025666,39.166709 29.454068,34.675889 37.704039,33.15865 44.815916,38.59334 57.361919,49.176673 34.401109,62.324522 31.322166,49.176673 23.735895,18.972541 63.087465,3.9301677 81.56679,11.356687 99.3806,14.802083 116.83961,42.725231 108.96875,54.734804 99.3806,64.443137 87.403484,53.539286 91.727226,43.898266 c 2.789513,-6.130844 10.878624,-10.558169 18.663944,-6.577813 11.99565,6.939803 13.21483,32.691402 13.21483,48.508833 -1.91091,24.586404 -7.46425,40.422454 -14.27543,44.053884 -1.95,1.00053 -2.98697,-0.01 -3.53787,-0.71323 l 0.0389,-8.03993 -1.31668,-5.064 -11.660054,-4.57633 -13.716341,2.74201 c -1.050825,2.45042 -1.555129,7.96755 -3.149232,7.69642 -1.477649,0.16192 -1.17418,-4.80209 -1.84785,-7.2363 l -8.532636,0.10378 c -0.466069,2.34732 0.363612,6.68431 -1.46461,7.31868 -1.891773,0.0603 -2.383963,-5.20782 -3.643018,-7.604 l -13.627962,-3.17439 -11.759909,5.57735 -0.84369,3.71759 -0.09726,8.02169 c 0.114037,2.67922 -4.041592,2.77545 -4.45809,0.42052 l -1.348293,-13.36551 -0.761366,-14.66047 1.47473,-12.024989 c 0.967849,-3.854548 2.045657,-11.590569 3.318393,-11.567499 1.102758,-0.334689 0.728519,3.176168 0.9027,5.315168 l 1.075625,18.97302 16.74226,-16.71574 6.36034,-0.789535 -16.508505,18.549335 0.06602,6.17598 9.966582,-4.54603 6.566972,-0.13704 c 0.02114,-6.681301 -0.13341,-13.363746 -0.0824,-20.044905 l 1.089853,-0.05638 c 0.822491,2.192105 4.266844,3.525145 5.982051,3.925942 -2.40148,-0.588744 -5.409324,-2.08835 -5.996579,-3.978262 L 65.50217,71.698528 65.137153,47.541617 61.881399,46.329688 62.494094,30.723218 67.661686,15.00498 c 0.516635,-0.667992 2.404249,-0.88514 3.108009,0.177887 l 5.674898,16.237657 0.276828,14.769742 -2.886658,1.338655 -0.04706,24.367886 6.822408,12.416196 c -1.646579,2.696633 -4.454897,3.418817 -5.72657,3.513277 l -1.01877,-13.362011 -8.337217,-0.07377 -0.991557,12.020446 0.172108,10.974064 1.236956,6.753291 7.525489,0.13641 1.518163,-7.400421 -0.08499,-9.042088 c 1.382914,-0.05906 4.266967,-1.064026 5.696533,-3.50498 l 1.379408,0.07832 0.325867,19.786109 6.282423,0.079 9.945384,4.2209 -0.0191,-5.69476 -16.437863,-18.38002 6.055766,0.736976 17.488929,17.300174 0.16001,-12.357797 c 0.41952,-4.329797 -0.24495,-13.82661 1.25856,-12.98938 2.48764,6.396369 3.72311,11.769085 4.6772,20.250756 l 0.062,13.943371 c 0.0258,5.19998 -0.75472,16.4131 -2.17109,18.72741 l -7.47374,10.7179 c -6.800973,8.70459 -28.577587,-15.15164 -57.224549,0 -12.13113,5.54549 -23.825519,9.51467 -30.233031,7.13695 -10.568982,-6.39039 -3.435726,-21.70108 7.951989,-16.81146 7.085849,3.00826 24.823373,9.00561 25.423535,24.36681 0.617317,12.95565 -0.37279,16.77402 -6.859397,25.50698 -13.11511,13.82303 -33.784057,-2.04834 -26.117787,-14.05879 7.11572,-9.98755 27.435513,-17.86974 38.869226,-12.50905 15.806894,7.41107 23.774965,-5.28707 39.156304,-4.13697 9.5729,1.66471 19.31838,9.15023 24.4428,17.06202 7.02484,11.65794 -15.46296,24.03637 -25.833135,12.23285 -10.596503,-18.29998 7.111652,-33.00073 20.906805,-47.11689 6.96053,-6.72271 17.68954,-11.63362 26.13896,-3.24869 10.61372,12.013 0.84844,31.17886 14.24861,45.62338 4.36044,4.30567 9.29204,5.86681 11.58731,2.98577 3.4097,-3.97215 6.88344,-8.81386 10.69045,-13.28181 l 0.16921,0.14271 c 19.75023,8.62566 32.6197,-1.80026 34.54869,-2.67708 l -1.966,-3.22566 c -4.97936,4.18956 -18.4526,8.83104 -29.8536,3.04214 l -0.28199,-0.23362 c 0.15301,-0.16896 0.30648,-0.33726 0.46042,-0.50483 4.80895,-5.23541 9.30494,-10.47156 14.84256,-14.23017 2.16614,-1.46654 3.60466,-1.65503 5.19842,-0.31533 2.94793,2.16727 6.0865,6.62244 9.25115,11.57586 2.93787,4.59849 6.695,11.34779 9.19531,16.04875 1.15027,2.36029 4.12194,2.07207 3.43606,-1.55028 -0.85548,-5.74611 -1.94428,-11.61663 -3.26859,-17.40229 l 0.049,-0.0164 c 3.70862,-3.9932 10.80246,-18.55706 4.53218,-33.12058 -3.48939,-8.10458 -8.77272,-15.78051 -23.13265,-20.64259 l 2.11197,4.48645 c 4.55942,2.03859 13.88441,5.59786 18.37807,18.94735 4.62518,13.48102 -1.86509,23.14129 -3.04914,25.56367 l -0.0287,0.0588 c -2.61274,-10.28983 -5.80934,-20.77355 -9.43243,-30.42025 -5.59239,-14.89012 -11.68745,-26.381414 -14.85168,-30.287304 -0.19036,-0.23497 -0.61864,-0.38295 -1.06488,-0.39363 l -0.024,1e-5 c -0.0477,4.71396 -0.0469,9.42983 -0.0793,14.144504 l 2.95632,21.30667 6.88201,2.97601 -6.13801,1.76701 0.372,7.62601 -4.464,-5.39402 -4.46401,5.48702 0.93,-7.53302 -5.76602,-2.325 6.13075,-2.29522 3.51779,-21.66131 0.10423,-14.098884 -0.0703,5.5e-4 c -0.44583,0.0129 -0.89243,0.16619 -1.12543,0.50937 -2.24705,3.30954 -3.26012,4.45794 -6.66477,11.643144 -4.95753,1.2654 -18.91814,7.23449 -24.05869,22.54728 -2.82382,8.41164 -2.4619,20.39122 5.07848,31.02118 l 1.14691,-5.07005 c -3.04693,-5.21705 -6.7756,-14.89186 -1.99697,-27.34261 5.74313,-13.04262 14.37975,-15.03737 17.2294,-16.44027 l 0.47094,-0.2192 c -8.44113,17.87267 -18.40236,45.40744 -19.82857,70.68458 -0.11143,4.01172 0,5.1967 1.46784,6.41374 10.24966,6.7105 21.87149,-3.58643 35.72952,-4.14147 26.69493,4.37757 34.47728,5.49306 36.95262,-17.36301 3.70548,-21.16864 -1.13382,-58.39335 19.62637,-61.840255 19.21825,-1.709623 17.71269,23.117905 3.64823,24.882795 -11.01469,1.52277 -20.9859,-8.47213 -27.84623,-19.4577 -13.84603,-20.069862 -32.8074,-35.401054 -55.04268,-38.399344 -13.27418,-1.64559 -30.37904,-0.17646 -40.29547,10.29852 -5.89346,5.89515 -1.73638,20.644728 8.66438,21.154918 11.07784,0.54351 19.5621,-6.380435 24.13816,-16.739367 3.10635,-7.181514 7.14295,-27.686597 7.15619,-32.823257 0,-12.48442 -0.79913,-26.11512 -8.74263,-32.73456 -14.16529,-10.8288295 -37.63055,9.517956 -27.36481,21.120856 10.29861,12.18858 26.16017,16.72746 41.43787,17.85687 11.23944,0.33445 25.11548,-0.16139 34.62985,-3.31125 10.32709,-3.89502 20.92922,-9.45953 25.99321,-18.7071 7.15415,-16.393653 -17.59871,-26.675922 -28.80728,-17.390572 -8.51932,8.00116 -8.40503,16.177383 -5.96996,30.326393 3.97716,12.76292 11.71815,29.089679 23.6757,35.892389 11.23568,6.55391 23.32929,-1.10437 28.53727,-14.70416 5.55353,-16.60644 7.72437,-32.32459 20.15194,-44.074 20.39088,-17.6679501 47.44075,-18.4430401 67.83198,-1.10908 21.24007,20.63041 28.40492,47.666992 17.14894,66.906955 -5.24921,7.243295 -12.19375,14.193879 -12.35345,29.345949 -0.14746,13.99131 12.35345,28.41443 -1.14346,40.4621 -5.23546,4.11069 -10.74683,3.9448 -16.33228,2.63063 -1.64173,0.0687 -2.50768,-1.12831 -2.70836,-4.55318 l -0.34903,-14.65891 -0.0717,-16.23479 -13.98693,-18.42102 -1.52873,13.22602 c -0.51211,2.36972 -3.17109,3.2667 -4.63247,3.1696 -2.36131,0.35992 -4.67452,-1.2034 -4.75072,-3.87107 l -1.20509,-12.73971 -14.36682,18.66231 -0.39396,24.65739 c 0.12733,4.87441 -0.4442,10.77893 -2.86159,10.5264 -2.97558,-0.13651 -2.60532,-5.64222 -2.75356,-10.82407 l 0.36734,-57.434146 c -0.0346,-1.958482 0.83563,-4.808179 2.83238,-4.755979 1.55369,0.05834 2.96798,1.172128 3.17153,4.247751 l -0.24959,18.926084 13.1791,-12.012989 -0.40001,-16.546906 c -14.83036,-3.623046 -25.77217,-16.678573 -25.69387,-32.171356 0.0922,-18.230299 15.4083,-32.931821 34.20947,-32.836681 18.80118,0.095 33.9677,14.950764 33.8756,33.181048 -0.0921,18.230301 -15.40833,32.931837 -34.20952,32.836697 -1.60281,-0.0071 -3.17922,-0.123523 -4.72203,-0.339103 l 0.003,-0.01726 c 0.10313,-2.655089 -0.34655,-7.933259 1.72501,-8.731023 -12.05353,-1.477498 -21.34673,-11.454819 -21.28583,-23.494064 0.0658,-13.011295 11.04781,-23.510887 24.50978,-23.442857 13.46201,0.06818 24.32176,10.671019 24.25596,23.682343 -0.0636,12.576156 -10.31098,22.799255 -23.15238,23.407456 -1.8348,0.05078 -2.67619,0.0164 -4.2998,-0.160994 0.0309,-2.901022 0.0609,-5.802073 0.0913,-8.703095 -7.80846,-0.774087 -13.88104,-7.136992 -13.84214,-14.839622 0.0414,-8.196109 6.98699,-14.805378 15.51328,-14.762298 8.52628,0.04308 15.61062,6.725984 15.36315,14.91847 -0.27522,9.111534 -5.46358,15.653348 -15.51326,14.7623 -0.51138,-0.04576 -1.01376,-5.6e-4 -1.51402,-0.05006 0.15609,-2.006265 0.31856,-4.035096 0.45378,-5.754875 -0.34849,-0.249928 -0.67391,-0.559891 -0.94311,-0.933242 -1.30314,-2.300651 -2.17246,-4.327099 -2.92894,-7.141855 -0.11318,-0.925467 -0.14535,-1.741702 0.14966,-2.692302 0.41262,-1.539687 2.26055,-4.531411 5.94648,-4.709322 1.99929,-0.09642 4.654,0.997227 6.14046,4.767146 0.39195,1.11399 0.34186,2.262854 0.11026,3.240968 -0.82028,2.62542 -1.66365,4.434647 -3.0255,6.567701 -0.41121,0.666226 -1.1052,1.142075 -1.80904,1.417235 0.0898,1.680027 0.15223,3.331841 0.22483,5.014336 l -0.10031,9.05796 c 2.85514,0.222998 2.74942,5.22605 2.6229,8.725475 1.17441,-0.111399 2.23106,-0.304358 3.32153,-0.510667 l -0.68845,16.36968 12.90088,12.568056 0.13123,-18.349617 c 0.12576,-2.02545 0.6772,-4.587322 3.02436,-4.678042 2.0899,0.0619 2.97616,2.310394 3.13326,4.209082 l -0.16831,63.585547 c -0.11763,2.978 0.16401,8.4905 -6.73142,8.80475 -10.08962,0.0435 -21.42398,-4.07539 -57.88875,6.21444 -8.50008,2.53801 -18.13002,-2.01872 -21.71271,-9.31551 -5.34871,-12.16667 4.26936,-23.52842 17.77342,-15.71545 10.16602,5.11856 14.60098,20.73064 20.66599,30.3285 15.55898,19.78094 28.43625,-6.77706 42.15317,0.65525 34.41335,35.48627 78.13145,-39.34686 57.49381,-48.33173 -19.95773,-7.7372 -26.80704,14.4377 -18.62922,24.47868 3.67546,4.92502 9.91676,8.48104 16.16616,10.95844"
       style="fill:none;stroke:#000000;stroke-width:0.214539;stroke-opacity:1"
       id="path3414"
       sodipodi:nodetypes="cccssccccccccccccccccccccccccccccccccccccccccccccccccccccccccccccccccccccccccccccccccccccccccccsccscccscccscccccccccccccccccccscsccccscscccssscccccccccccccccccccccccccccccccccccccccccccccccccccccccccccccccccccccccccccccccccccccccccccccccsssccccsssccccccccccccccccccccccc" /></g></svg>
