<?xml version="1.0" encoding="UTF-8" standalone="no"?>
<!-- Created with Inkscape (http://www.inkscape.org/) -->

<svg
   width="210mm"
   height="297mm"
   viewBox="0 0 210 297"
   version="1.1"
   id="svg5"
   xml:space="preserve"
   sodipodi:docname="e2e - care bear v4.svg"
   inkscape:version="1.2 (dc2aedaf03, 2022-05-15)"
   xmlns:inkscape="http://www.inkscape.org/namespaces/inkscape"
   xmlns:sodipodi="http://sodipodi.sourceforge.net/DTD/sodipodi-0.dtd"
   xmlns="http://www.w3.org/2000/svg"
   xmlns:svg="http://www.w3.org/2000/svg"><sodipodi:namedview
     id="namedview7"
     pagecolor="#ffffff"
     bordercolor="#000000"
     borderopacity="0.25"
     inkscape:showpageshadow="2"
     inkscape:pageopacity="0.0"
     inkscape:pagecheckerboard="0"
     inkscape:deskcolor="#d1d1d1"
     inkscape:document-units="mm"
     showgrid="true"
     inkscape:zoom="0.70710678"
     inkscape:cx="703.57125"
     inkscape:cy="588.31284"
     inkscape:window-width="2560"
     inkscape:window-height="1369"
     inkscape:window-x="1912"
     inkscape:window-y="-8"
     inkscape:window-maximized="1"
     inkscape:current-layer="layer1"><inkscape:grid
       type="xygrid"
       id="grid1482" /></sodipodi:namedview><defs
     id="defs2" /><g
     inkscape:label="Layer 1"
     inkscape:groupmode="layer"
     id="layer1"><g
       id="g943"
       transform="translate(311.15,233.89167)"><path
         style="fill:none;stroke:#000000;stroke-width:0.264999"
         d="m -321.85265,-116.99956 c -4.26169,-2.82949 -7.57713,-5.87787 -15.92586,-5.35389 -7.09117,3.56306 -14.28715,7.23091 -16.87396,13.53132 -0.37214,4.08007 11.70646,3.78367 17.11589,2.67214 3.82859,2.05015 11.88098,9.06513 17.26571,14.15344 -8.17363,5.88291 -6.2912,13.8007 -5.99545,19.4883 -1.60299,5.99495 -1.79128,11.57072 -1.82228,15.78415 -7.48428,1.55613 -9.85554,6.59506 -5.77994,12.00449 3.71744,4.1003 7.36077,4.56962 11.15233,1.40793 1.75303,1.90149 2.98735,2.83965 5.14794,4.25948 0.63752,3.08274 1.95619,4.93413 3.24868,6.65453 l 0.48789,-4.78973 c 1.32103,1.558 2.50477,5.23147 3.93972,6.67605 l -0.28702,-4.67882 c 0.95999,0.84303 2.98552,4.07625 3.74528,4.75743 l 0.131,-4.13944 3.58926,0.31439 c 0.0262,3.24867 0.70737,4.7944 3.37966,4.63721 3.49319,-0.23579 7.01258,-1.86012 7.80729,-7.93827 6.26412,-5.84015 7.76003,-10.92052 11.01127,-17.12744 2.54207,-3.5015 11.32577,-3.61366 9.78144,-14.59806 -6.07507,-19.67587 -17.59953,-21.32688 -22.94104,-22.71589 l 2.8295,7.3357 c 5.58911,0.50651 7.24838,3.16133 7.02132,8.27885 2.77709,3.54559 2.3055,9.65868 -1.88633,12.99468 0.52398,4.27916 -0.83836,6.93402 -3.14387,7.02132 -1.95622,0.17466 -1.76406,-3.00415 -1.93872,-5.92097 -4.13943,-0.33185 -8.43606,-4.12197 -9.64121,-8.27887 -0.57638,3.87744 -1.41476,8.96005 -5.76378,8.06928 -2.72468,-0.94316 -1.99111,-4.55861 -1.88632,-7.07371 l 6.91652,-0.99557 h 0.73358 c 1.27502,-3.52812 1.29248,-6.84666 0.83837,-10.11278 2.70722,-2.95174 5.46684,-3.33599 8.75044,-3.98223 l -2.8295,-7.3357 c -5.77867,-1.23912 -12.23444,-3.45046 -19.34854,-10.85647 -4.30336,-4.47993 -6.63,-13.10685 -8.82927,-14.14285 l 2.76742,-8.34281 -0.66691,-7.18787 c -6.11167,-8.23956 -9.34146,-15.27396 -10.00374,-22.67515 -11.88671,-5.25522 -12.45546,-15.01669 -8.15121,-16.08009 3.58459,-4.4837 3.50131,-3.46561 10.59655,-3.70508 6.66553,-0.18416 1.85593,-3.30262 13.70884,1.33382 5.44921,2.73423 8.38331,8.19316 10.37426,11.18938 1.32419,3.37427 -2.22461,7.3249 -2.00076,9.33683 0.77462,10.77953 3.12118,12.54663 7.03967,12.375 8.11196,0.2697 0.81893,-8.47303 -0.81512,-13.33832 -1.6858,-10.12833 4.38327,-9.4627 5.63174,-10.89297 12.99497,-5.36184 25.30875,-1.29206 27.19537,2.14895 4.24659,10.68672 -3.87273,8.16918 -6.59506,11.78219 -0.71671,2.38758 1.16354,3.48502 0.66701,5.49782 -0.75439,3.05801 -2.12635,6.49669 -1.85264,9.24844 0.0459,1.86002 0.82038,3.46333 1.6108,5.01947 8.64858,11.98249 4.08276,28.58253 -6.00641,31.73027 -7.61374,2.375426 -9.55118,2.14882 -15.87081,2.10231 -11.03878,-0.08125 -20.17772,-9.14203 -20.17772,-20.30389 0,-11.16186 9.51282,-20.21033 20.5519,-20.21033 l -0.10085,10.37497 c 3.81053,3.24776 11.25753,6.08115 11.96344,11.74824 0.53181,4.27011 -4.00235,7.21195 -7.88855,5.78551 -2.02565,-0.74356 -2.87338,-2.35882 -3.70417,-4.19801 -1.24672,2.1336 -2.46406,4.15004 -5.02708,4.82496 -3.89335,1.02518 -7.45146,-2.90909 -6.79212,-6.67705 0.97446,-5.56985 7.32211,-8.13361 11.44848,-11.48365 l 0.10085,-10.37497 c 11.03908,0 18.5145,9.14617 19.98802,20.21033 0.8826,6.62714 -0.89554,10.41959 3.35743,16.35755 7.79623,8.996245 13.31635,17.518075 16.23239,28.895472 9.58444,5.169919 11.90689,11.080859 6.07816,15.509769 -6.4922,3.90094 -7.27855,-0.64573 -10.58436,-0.52398 -1.22892,5.7016 -5.05139,5.32685 -7.02132,0.20959 l -4.62032,-11.8423 c 1.12162,8.95183 1.83284,14.66205 4.01981,18.84104 2.56947,4.38314 10.28047,8.16512 9.58945,13.43748 -2.34872,9.668336 -15.50134,3.955351 -12.15104,-3.67684 3.2493,-6.608297 11.52342,-5.70636 18.37432,-5.50088 18.58561,1.23904 26.10462,-17.40817 28.9357,-25.614469 2.32477,-7.39837 -1.00699,-13.759317 -6.99216,-12.814877 -5.57287,0.936151 -6.40012,7.620127 -2.37525,11.133777 5.46679,4.235353 11.44405,-3.96837 12.22078,-9.03041 2.47705,-13.311027 3.21721,-29.654342 -4.39534,-34.172422 -6.73382,-3.95783 -20.27229,-17.22012 -11.26166,-26.02553 5.16297,-4.31443 14.741,-2.40541 14.88127,7.41635 -1.02484,12.49273 -11.35398,6.11378 -28.89141,10.21408 -9.54333,1.54506 -13.52903,7.31391 -6.84407,19.97424 2.64297,5.187125 5.06363,8.966315 9.48503,9.262725 7.16318,-0.37051 7.68356,-11.198585 0.0741,-11.485785 -7.18886,-0.27133 -10.99776,6.86822 -8.36605,16.049395 2.21087,8.34421 8.08959,15.116487 16.7978,22.936716 6.07815,5.62404 0.26199,19.52694 6.44518,24.94959 5.7186,7.84984 4.10793,10.863309 12.07515,19.753101 5.45067,6.081839 -0.21787,13.820179 -5.71826,14.035643 -4.85304,0.190106 -9.78713,-6.386865 -8.75883,-10.005456 2.29651,-8.081449 24.95966,-17.960851 34.639,-19.482205 4.77352,-0.716579 8.7533,-6.063368 9.52731,-10.723025 2.19927,-1.036 4.52385,-9.661551 8.82721,-14.141481 7.1141,-7.406 13.2031,-9.51254 18.98177,-10.75166 l 2.88188,-7.28331 c -3.2836,-0.64624 -5.72883,-1.18768 -8.43605,-4.13943 0.45411,-3.26612 0.43665,-6.58466 -0.83837,-10.11278 h -0.73358 l -6.91652,-0.99557 c -0.10479,-2.515092 -0.83836,-6.130538 1.88632,-7.073698 4.34902,-0.89077 5.1874,4.19184 5.76378,8.069268 1.20515,-4.156888 5.50178,-7.947008 9.64121,-8.278858 0.17466,-2.91682 -0.0175,-6.09563 1.93872,-5.92097 2.30551,0.0873 3.66785,2.74216 3.14387,7.02132 4.19183,3.335996 4.66342,9.449078 1.88633,12.994668 0.22706,5.11752 -1.7466,7.92954 -7.33571,8.43605 l -2.88188,7.28331 c 5.34151,-1.38901 17.23274,-3.14482 23.30781,-22.82069 1.54433,-10.984398 -7.23937,-11.096558 -9.78144,-14.598058 -3.25124,-6.20692 -4.74715,-11.28729 -11.01127,-17.12744 -0.79471,-6.07815 -4.3141,-7.70248 -7.80729,-7.93827 -2.67229,-0.15719 -3.35346,1.38854 -3.37966,4.63721 l -3.58926,0.31439 -0.131,-4.13944 c -0.75976,0.68118 -2.3296,3.07886 -3.34204,4.23795 l -0.11622,-4.15934 c -1.44124,1.58331 -2.80564,4.85325 -3.96712,6.17193 l -0.46049,-4.28561 c -1.29249,1.7204 -2.61116,3.57179 -3.24868,6.65453 -2.16059,1.41983 -3.39491,2.35799 -5.14794,4.25948 -3.79156,-3.16169 -7.43489,-2.69237 -11.15233,1.40793 -4.0756,5.40943 -1.70434,10.44836 5.77994,12.00449 0.031,4.21343 0.21929,9.7892 1.82228,15.784138 -0.29575,5.6876 -2.17818,13.6054 5.99545,19.48831 -5.38473,5.08831 -13.43712,12.10328 -17.26571,14.15343 -5.40943,-1.11153 -17.48803,-1.40793 -17.11589,2.67214 2.58681,6.30041 9.78279,9.96826 16.87396,13.531323 8.34873,0.52398 11.66855,-2.53317 15.92792,-5.355262 l 2.76536,8.344182 -0.66691,7.18787 c -6.11167,8.23956 -9.34146,15.27396 -10.00374,22.67515 -11.88671,5.2552212 -12.45546,15.0166912 -8.15121,16.0800912 3.58459,4.4837 3.50131,3.46561 10.59655,3.70508 6.66553,0.18416 1.85593,3.3026188 13.70884,-1.33382 5.44921,-2.73423 8.38331,-8.19316 10.37426,-11.18938 1.32419,-3.37427 -2.22461,-7.3249012 -2.00076,-9.3368312 0.77462,-10.77953 3.12118,-12.54663 7.03967,-12.375 8.11196,-0.2697 0.81893,8.47303 -0.81512,13.33832 -1.6858,10.1283312 4.38327,9.4627012 5.63174,10.8929712 12.99497,5.36184 25.30875,1.29205998 27.19537,-2.14895 4.24659,-10.6867212 -3.87273,-8.1691812 -6.59506,-11.7821912 -0.71671,-2.38758 1.16354,-3.48502 0.66701,-5.49782 -0.75439,-3.05801 -2.00624,-6.669735 -1.85264,-9.24844 -0.10866,-1.739419 0.82038,-3.46333 1.6108,-5.01947 8.64858,-11.982493 4.08276,-28.582528 -6.00641,-31.730263 -7.61374,-2.375422 -9.55118,-2.14882 -15.87081,-2.10231 -11.03878,0.08125 -19.61385,9.14202 -19.61385,20.30388 0,11.161863 8.93435,20.243933 19.97343,20.243933 l -0.084,-14.861141 c -1.54285,0.99455 -5.72984,2.66328 -6.83327,1.90634 -1.14856,-0.9231 -0.43537,-4.4508 0.12376,-6.64092 -1.54719,-1.57677 -4.25065,-4.41201 -3.29983,-5.60973 1.00529,-1.2663 3.83021,-1.68983 5.73346,-1.85615 1.01167,-1.96788 2.2017,-5.19724 4.37225,-5.19726 2.17055,-10e-6 3.36058,3.22936 4.37225,5.19724 1.90326,0.16632 4.72817,0.58984 5.73346,1.85615 0.95083,1.19772 -1.75266,4.03295 -3.29982,5.60973 0.5591,2.19012 1.46103,6.02207 0.12376,6.64092 -2.21496,1.02495 -5.04558,-0.83482 -7.02602,-1.90632 l 0.0839,14.861141 c 11.03908,0 18.52913,-9.179766 20.00265,-20.243929 0.8826,-6.62714 -0.89554,-10.41959 3.35743,-16.35755 7.79623,-8.99624 13.31635,-17.51807 16.23239,-28.89547 9.58444,-5.169912 11.90689,-11.080852 6.07816,-15.509762 -6.4922,-3.90094 -7.27855,0.64573 -10.58436,0.52398 -1.22892,-5.7016 -5.05139,-5.32685 -7.02132,-0.20959 l -4.62032,11.842302 c 1.12162,-8.951832 1.83284,-14.662052 4.01981,-18.841042 2.56947,-4.38314 11.07422,-7.50366 9.58945,-13.43748 -2.26928,-10.06825 -16.23197,-6.01978 -12.54791,3.4784 2.51351,5.82366 11.92029,5.9048 18.77119,5.69932 18.585599,-1.23904 26.104609,17.40817 28.935689,25.614462 2.32477,7.39837 -1.00699,13.75932 -6.99216,12.81488 -5.268859,-0.819221 -7.382329,-7.479813 -2.37525,-11.13378 7.244132,-4.141808 11.44405,3.96837 12.22078,9.03041 2.47705,13.31103 3.848634,28.625352 -4.39534,34.17242 -6.593503,4.238466 -24.762409,23.961913 -15.751779,32.767323 5.16296,4.31443 14.460354,1.937684 14.694168,-7.182489 -0.603882,-10.387991 -6.676759,-13.089431 -24.214178,-17.189731 -9.54333,-1.54506 -13.52903,-7.313913 -6.84407,-19.974243 2.64297,-5.18712 5.06363,-8.96631 9.48503,-9.26272 7.36162,0.03978 7.305,11.55261 0.0741,11.48578 -7.02251,-0.0649 -10.99776,-6.86822 -8.36605,-16.04939 2.21087,-8.34421 8.08959,-15.11649 16.7978,-22.93671 6.078139,-5.624042 1.65105,-21.742832 7.1397,-27.529282 6.363522,-7.50257 3.940897,-8.34598 11.289855,-19.08005 4.212743,-6.15323 -0.920134,-12.0926 -6.42052,-12.30806 -4.853038,-0.19011 -7.08851,4.93244 -6.06918,8.55356 3.354846,11.91791 23.063034,19.5918 32.742374,21.11315 5.401908,0.61737 8.7533,6.06337 9.525,10.71563"
         id="path481-0-9-6-2"
         sodipodi:nodetypes="ccccccccccccccccccccccccsssccccccccccccccccccccccccccssccccccccccccccccsccccccccccccccscccssscccccccccccsssccccccccccccccccccccccccccccccccccccccccsscccccscscscsccccccccsccccccccccccccscccssscc" /></g></g></svg>
