<?xml version="1.0" encoding="UTF-8" standalone="no"?>
<!-- Created with Inkscape (http://www.inkscape.org/) -->

<svg
   width="210mm"
   height="297mm"
   viewBox="0 0 210 297"
   version="1.1"
   id="svg5"
   xml:space="preserve"
   sodipodi:docname="e2e - spider web v1.svg"
   inkscape:version="1.2.2 (732a01da63, 2022-12-09)"
   xmlns:inkscape="http://www.inkscape.org/namespaces/inkscape"
   xmlns:sodipodi="http://sodipodi.sourceforge.net/DTD/sodipodi-0.dtd"
   xmlns="http://www.w3.org/2000/svg"
   xmlns:svg="http://www.w3.org/2000/svg"><sodipodi:namedview
     id="namedview7"
     pagecolor="#505050"
     bordercolor="#eeeeee"
     borderopacity="1"
     inkscape:showpageshadow="0"
     inkscape:pageopacity="0"
     inkscape:pagecheckerboard="0"
     inkscape:deskcolor="#505050"
     inkscape:document-units="mm"
     showgrid="true"
     inkscape:zoom="0.47748556"
     inkscape:cx="-299.4855"
     inkscape:cy="94.243688"
     inkscape:window-width="2560"
     inkscape:window-height="1369"
     inkscape:window-x="1912"
     inkscape:window-y="-8"
     inkscape:window-maximized="1"
     inkscape:current-layer="layer1"><inkscape:grid
       type="xygrid"
       id="grid1003" /></sodipodi:namedview><defs
     id="defs2" /><g
     inkscape:label="Layer 1"
     inkscape:groupmode="layer"
     id="layer1"><path
       style="fill:none;stroke:#ffff00;stroke-width:0.313309;stroke-opacity:0.32312"
       d="m 265.80662,52.493348 c -2.7263,1.990989 -12.07769,5.092522 -15.4577,-2.327883 -3.0217,3.191417 -7.40699,3.825872 -12.36697,3.721744 -1.12742,5.46045 -3.89313,10.910866 -8.53947,16.079108 5.1494,-3.465876 10.22628,-7.096895 19.42925,-1.326881 3.20416,-2.723505 7.23025,-3.328771 11.50472,-3.2939 L 229.72099,49.660425 c 10.52122,1.096131 15.41538,-7.178555 21.7335,-12.616968 l -2.58276,31.595979 c -0.50528,3.880525 -1.75659,9.674948 -1.07726,13.035568 l 5.15407,17.79287 c -0.3289,3.973846 2.71946,8.153896 5.68133,11.008816 -3.4115,3.43633 -4.55743,6.9863 -5.33115,10.59249 -4.29588,-0.7548 -8.45231,-1.101 -11.56993,0.28867 0.78811,-3.39543 0.82733,-6.32683 -1.63151,-8.86734 1.59077,-3.07813 2.39552,-6.42726 2.59868,-9.90886 6.10593,-1.29867 12.11984,-3.42683 17.68029,-6.992025 1.12071,6.438085 3.99066,10.435535 7.53277,13.689365 -5.14547,5.74332 -8.28784,12.85296 -8.91693,21.71745 -8.47554,-0.30294 -16.86769,-1.06044 -24.82125,0.80544 1.69956,-5.84949 1.62774,-11.78595 -2.17468,-18.33444 4.57165,-2.91314 7.4719,-7.98415 7.2341,-17.106605 3.79344,-1.91396 6.95484,-5.835247 8.56421,-14.685831 6.95792,4.589247 14.76907,4.890212 23.51023,-1.186989 l -46.7515,64.604125 c 6.36727,-11.42643 4.75082,-19.7685 -2.951,-30.46594 6.48702,-6.35455 10.9251,-14.799254 13.6946,-24.946109 l 27.14406,47.329809 c 2.81847,-9.29931 5.55245,-13.11568 16.43306,-12.83988 2.53085,-7.51823 6.27157,-13.42606 11.40912,-17.47464 -10.27461,-5.69061 -16.65645,-19.587669 -18.97834,-26.207365 6.09189,0.839341 10.74822,1.361205 17.46083,-5.291012 -3.18085,10.644985 -4.55667,22.010269 1.51751,31.498377 l -68.68084,7.93082 -28.80451,3.18167 c 5.20693,-3.29602 9.32589,-7.27719 13.08587,-11.71046 1.61653,3.78617 3.79953,6.88881 6.83957,9.50954 -6.03515,4.66834 -5.29355,12.54557 -0.842,17.55256 l -82.93325,-21.13606 c 4.55033,4.69893 6.70202,11.14403 8.20528,18.93307 17.00403,2.16151 25.49443,22.5792 16.4984,34.25732 13.5281,-4.53349 28.25556,-5.44113 40.2885,-2.39915 -9.81111,-7.81267 -21.33653,-14.05787 -37.84087,-15.88094 l 33.22031,-43.44309 c 1.38845,10.42598 4.65799,19.38811 10.23745,26.55268 -9.06251,9.57204 -10.39979,20.5964 -5.61689,32.77135 L 154.8633,89.568302 c 7.94842,3.005233 15.70653,4.741798 23.14062,4.318658 0.41197,8.98629 3.09336,13.37056 6.59696,15.77436 -1.45497,9.00882 0.56017,14.23801 4.70143,17.73605 -4.64353,5.98151 -5.42938,12.21468 -4.52692,18.23885 -7.63278,-2.91221 -15.95466,-3.46896 -24.39462,-4.3016 0.56136,-8.86905 -1.58125,-16.4475 -5.91291,-22.82704 3.94522,-2.75118 7.22093,-6.22009 9.1921,-12.45061 5.03402,4.27641 10.76787,7.11856 16.64543,9.22168 -0.26399,3.47753 0.0697,6.96283 1.23481,10.22596 -2.77633,2.18906 -3.1332,5.3376 -2.80598,8.80789 -2.90389,-1.79387 -7.05352,-2.2296 -11.41174,-2.05574 -0.28477,-3.67725 -1.00946,-7.61037 -3.93104,-11.47187 3.3169,-2.43339 6.99208,-6.04799 7.19727,-10.03014 l 7.41521,-16.86779 c 4.05925,4.223051 7.90583,7.87494 11.31558,9.6037 2.79763,2.60675 4.35277,8.49896 10.44235,8.99883 l -3.20691,-47.043382 c -1.62191,-3.642664 -0.0229,-8.532283 1.831,-12.204705 -4.35442,-2.117991 -7.12638,-4.532584 -9.04683,-7.681395 -3.80613,2.130217 -7.77585,4.154723 -11.17739,3.871796 1.86447,2.945093 2.52221,4.826124 1.03953,8.035761 2.51748,2.380699 4.20359,4.45711 5.54435,7.676607 6.19789,-2.086312 13.47074,0.68433 19.9036,2.926091 -1.06674,-6.447239 0.57926,-12.593161 2.84912,-16.833633 -6.75258,-3.723486 -12.11731,-8.271374 -15.63659,-16.431648 -7.90073,3.082995 -15.98944,6.427945 -24.11316,7.291376 3.53476,4.960905 5.61546,9.49538 4.18716,16.931838 5.2769,1.241215 8.18082,5.283654 10.96688,13.973526 4.21255,0.554824 10.32241,0.90531 14.76244,8.728944 6.43494,-3.746507 11.57831,-3.529559 20.02554,-4.453117 -5.00599,-9.379607 -3.78158,-18.473908 0.38194,-28.367273 -10.0259,-7.61492 -17.68865,-16.606645 -23.05973,-27.53968 -12.65745,7.138554 -25.14181,13.158669 -35.70133,14.782323 3.41302,9.890749 4.15661,17.776294 2.72009,25.093651 8.37966,4.345143 13.18709,11.735742 18.6654,21.158774 4.53449,1.150801 10.98298,4.768597 17.88358,12.755026 13.86537,-8.463537 26.4374,-6.748399 36.71632,-5.480279 L 153.21931,31.800355 c 5.24023,15.525343 0.2759,24.812589 -1.41257,31.696671 14.20683,10.653163 18.46825,19.972708 26.19718,30.389934 l 19.61173,-83.613461 c -7.29322,4.619204 -31.63705,20.54601 -44.39634,21.526856 5.30204,-3.140789 15.56915,-12.543203 17.39678,-20.769681 10.85216,3.717427 19.30481,0.975592 26.99956,-0.757175 1.71431,5.660825 3.81804,16.117629 17.10162,19.589614 7.42568,12.916117 13.96928,11.81034 22.8171,14.765479 l -85.72763,18.868434 c -2.63891,0.285127 -6.94072,-2.986231 -7.88897,-7.052539 l -20.49225,-3.459993 c 5.61767,8.679509 1.24905,18.941683 -1.29042,26.389926 l 20.06015,-32.032722 c -0.33034,3.292693 -0.14956,6.439358 1.72252,9.102789 -5.10141,6.684933 -2.66266,10.85646 -0.35639,15.072148 -3.65433,-3.948733 -7.57196,-6.405564 -11.70137,-7.662311 0.43237,-3.816262 2.21821,-11.73438 -0.0275,-14.290347 4.05554,-5.057254 5.48995,-7.361706 11.66417,-9.177145 L 128.5192,29.71145 c -3.86159,-0.993848 -6.94668,-5.279576 -8.67104,-9.014527 -4.36583,2.094353 -8.16016,2.125214 -11.82049,1.672209 -0.69727,4.305603 -1.59443,8.006894 -3.93051,10.495528 3.46596,0.370216 6.11819,1.536593 7.71072,4.693154 3.42977,-0.49212 6.99943,-0.0683 10.35479,0.882731 3.23114,-5.341218 7.50214,-10.609882 12.69513,-14.691785 -5.71338,-3.172082 -8.92295,-7.304516 -10.83365,-11.718482 -7.11418,2.974894 -14.89139,3.794511 -23.47114,1.478719 -2.496212,8.10526 -4.23596,16.057131 -8.609424,22.957367 6.083247,0.314901 11.398954,2.665025 16.336284,8.406445 4.25246,-3.361971 9.99453,-4.436786 18.53336,-1.21744 3.05319,-2.954911 7.795,-4.65383 16.68341,-3.268537 1.06532,-7.369534 4.31165,-14.626628 8.83911,-21.817654 l -76.182049,22.57651 c 13.871223,-0.287758 21.360235,5.011933 27.619499,13.164662 8.13193,-4.041447 17.56557,-5.461347 28.05927,-4.746373 L 96.03647,8.3868562 c 9.70919,0.3904791 15.95393,-5.0447878 19.26529,-15.4129315 7.93239,0.077497 14.74081,-1.5165069 20.25158,-5.0402997 L 103.7732,54.31035 93.552267,79.417249 C 93.196242,73.901531 91.833105,68.947686 89.959818,64.082131 93.63511,64.437299 97.321396,63.1472 100.69128,61.88083 c 1.08023,6.757635 11.56638,10.862396 15.61823,12.956133 L 81.912962,155.59662 c 7.54211,-5.4894 11.523787,-12.41934 26.351568,-10.96881 10.53772,-8.80139 20.73857,-4.16217 26.34321,-2.27226 L 73.840999,80.20776 c 12.968958,-0.246888 25.547298,0.0141 42.468511,-5.370797 9.62076,8.521014 21.98373,13.977204 38.55379,14.731339 L 46.526668,127.62423 c 6.99905,-7.63396 15.24385,-17.03543 16.40026,-33.238607 10.50879,-0.983353 14.480096,-3.856119 18.049239,-6.880542 10.853023,1.0087 22.846773,1.290835 31.249013,-3.010512 5.12463,5.417152 11.95926,9.363456 21.99432,12.32539 -4.80718,9.540991 -7.06925,21.889081 -8.60344,36.339551 -12.02036,-1.9725 -23.87254,0.36018 -35.892889,4.10409 -5.639366,-9.13297 -12.334084,-15.40882 -22.877572,-16.77691 4.151193,-7.4146 7.605743,-11.32911 8.290183,-18.74372 8.94796,0.92579 10.319159,-3.586292 13.216143,-6.694494 8.693272,2.775404 15.838885,2.349742 19.912605,-1.226732 5.22639,5.479578 10.12653,6.417326 16.21793,6.418586 -4.01237,7.11627 -5.58058,15.70665 -7.65613,23.92969 -8.68763,-1.87094 -15.90808,-0.20453 -22.859649,3.13274 -2.135439,-4.30973 -6.184587,-9.21749 -12.053719,-12.09118 4.975918,-4.34388 8.821118,-9.09362 11.772947,-14.59412 3.399877,0.77699 8.280001,0.66807 11.679861,0 1.75297,3.07037 3.61871,3.65308 7.09912,3.84433 -2.20482,2.60563 -3.30867,7.04256 -3.78333,11.37835 -3.67879,-0.26393 -6.80582,0.56241 -11.058025,2.87878 -1.914384,-3.6412 -6.032444,-8.54775 -9.940087,-9.34144 L 56.522445,90.417857 C 64.286326,88.507766 70.952363,85.774282 73.840999,80.20776 L 39.118922,0.78100821 C 44.440937,4.5838641 51.158244,6.5263199 59.084111,6.8573783 61.857213,17.382288 67.813806,23.13189 77.530221,23.241862 85.932667,22.509401 91.276258,15.9991 96.036467,8.3868562 90.194426,10.764173 85.963948,9.1125811 81.717996,7.4996767 82.777317,12.501547 80.523635,17.834718 77.530221,23.241862 L 39.661461,62.5212 c 10.516591,-0.173699 20.65836,0.403175 28.571412,4.85798 8.121623,-10.382317 20.698341,-10.853278 33.448137,-7.929553 L 20.781327,30.511786 c 4.151193,7.414608 6.988788,14.566952 7.673228,21.981561 8.947961,-0.925783 13.626739,1.277324 16.523723,4.385526 8.693272,-2.775404 15.475158,-1.553027 19.54887,2.023447 5.226409,-5.479579 9.949855,-7.013495 16.041248,-7.014748 -4.012365,-7.116275 -5.731135,-15.476537 -7.806684,-23.699578 -8.687616,1.870943 -15.958487,0.481404 -22.910056,-2.855858 -2.135439,4.309727 -6.646236,8.184007 -12.515368,11.057697 4.975918,4.343878 9.733385,9.884916 12.685214,15.385423 3.399878,-0.776992 7.81781,-1.062207 11.217688,-0.394138 1.75295,-3.070369 3.842931,-3.667745 7.32336,-3.859005 -2.204837,-2.605622 -3.252934,-6.598162 -3.727582,-10.933957 -3.678801,0.263932 -6.93892,-0.265016 -11.191124,-2.581391 -0.854729,3.77366 -5.419359,8.155932 -9.866897,8.882136 l -15.322392,9.604446"
       id="path546-9-27-2-2"
       sodipodi:nodetypes="ccccccccccccccccccccccccccccccccccccccccccccccccccccccccccccccccccccccccccccccccccccccccccccccccccccccccccccccccccccccccccccccccccccccccccccccccccccccccccccccccccccccccccccccccccccc" /></g></svg>
