<?xml version="1.0" encoding="UTF-8" standalone="no"?>
<!-- Created with Inkscape (http://www.inkscape.org/) -->

<svg
   width="210mm"
   height="297mm"
   viewBox="0 0 210 297"
   version="1.1"
   id="svg5"
   xml:space="preserve"
   inkscape:version="1.2.1 (9c6d41e410, 2022-07-14)"
   sodipodi:docname="blk - mandalorian helmet v1.svg"
   xmlns:inkscape="http://www.inkscape.org/namespaces/inkscape"
   xmlns:sodipodi="http://sodipodi.sourceforge.net/DTD/sodipodi-0.dtd"
   xmlns="http://www.w3.org/2000/svg"
   xmlns:svg="http://www.w3.org/2000/svg"><sodipodi:namedview
     id="namedview7"
     pagecolor="#ffffff"
     bordercolor="#000000"
     borderopacity="0.25"
     inkscape:showpageshadow="2"
     inkscape:pageopacity="0.0"
     inkscape:pagecheckerboard="0"
     inkscape:deskcolor="#d1d1d1"
     inkscape:document-units="mm"
     showgrid="true"
     inkscape:zoom="5.6568542"
     inkscape:cx="384.22415"
     inkscape:cy="484.36815"
     inkscape:window-width="1600"
     inkscape:window-height="837"
     inkscape:window-x="-8"
     inkscape:window-y="-8"
     inkscape:window-maximized="1"
     inkscape:current-layer="layer1"><inkscape:grid
       type="xygrid"
       id="grid400" /></sodipodi:namedview><defs
     id="defs2" /><g
     inkscape:label="Layer 1"
     inkscape:groupmode="layer"
     id="layer1"><g
       id="g639"
       transform="translate(455.52824,-363.20638)"><path
         d="m -380.09105,478.4446 -0.41073,-27.55484 c 11.71389,7.253 19.5293,23.30499 20.20805,40.89907 l 0.24355,6.31293 c 2.15112,0.58245 4.19097,-1.67304 5.14524,-3.45112 1.3135,-13.05125 1.81036,-37.95942 0,-39.85408 -1.5854,-1.65927 -17.21391,-4.07757 -24.81929,-6.49817 -6.71386,-2.13685 -5.74831,-5.66387 -0.77664,-4.25406 11.73856,1.98288 19.66126,1.76808 29.94034,1.85396 10.65965,0.089 21.71795,-0.39757 30.06608,-1.85396 4.97166,-1.40981 5.93721,2.11721 -0.77666,4.25406 -7.60539,2.4206 -23.23388,4.8389 -24.81929,6.49817 -1.81034,1.89466 -1.37464,26.80283 -0.0611,39.85408 0.95425,1.77808 2.9941,4.03357 5.14522,3.45112 v 0 c 6.20372,-2.37051 19.08971,-12.58141 22.24818,-16.94509 2.51171,-5.35567 1.37149,-20.393 1.37149,-27.87888 0,-4.11987 3.58521,-0.70937 3.67721,-4.17757 0.0502,-1.88445 0.62401,-7.91717 0.27444,-10.85808 -0.50879,-4.28041 -2.54536,-5.53854 -3.22604,-1.508 -5.45602,3.23101 -15.81356,3.2354 -21.47845,3.28007 -5.64617,0.0445 -9.13998,-0.34016 -8.75649,-0.91947 0.29539,-0.44626 2.94327,-0.93155 8.82204,-1.02091 5.07782,-0.0771 19.44496,-0.97999 21.36763,-4.87974 0.908,-13.45168 -14.2118,-31.00225 -28.86657,-31.00225 -3.42833,0 -2.7138,1.90502 -2.7138,6.87594 0,6.57907 -0.19901,19.25125 0,25.82857 0.0436,1.44312 -1.10967,1.71918 -2.2416,1.71918 -1.13193,0 -2.2852,-0.27606 -2.24159,-1.71918 0.19901,-6.57732 0,-19.2495 0,-25.82857 0,-4.97092 0.71452,-6.87594 -2.7138,-6.87594 -14.65478,0 -29.77458,17.55057 -28.86658,31.00225 1.92267,3.89975 16.2898,4.80264 21.36762,4.87974 5.87878,0.0893 8.52667,0.57465 8.82206,1.02091 0.38349,0.57931 -3.11033,0.96398 -8.7565,0.91947 -5.66489,-0.0447 -16.02242,-0.0491 -21.47844,-3.28007 -0.68068,-4.03054 -2.71725,-2.77241 -3.22605,1.508 -0.34958,2.94091 0.22424,8.97363 0.27444,10.85808 0.092,3.4682 3.67721,0.0577 3.67721,4.17757 0,7.48588 -1.14022,22.52321 1.37149,27.87888 3.15847,4.36368 15.99241,14.37443 22.2482,16.94509 2.33386,1.00811 6.10098,1.70521 9.52194,1.70521 3.42096,0 7.24017,-0.89725 9.52196,-1.70521 l 0.4089,-5.89952 c 1.21745,-17.56503 8.3288,-34.05948 20.04269,-41.31248 l -0.41073,27.55484"
         style="fill:none;stroke:#555555;stroke-width:0.409034"
         id="path521-8"
         sodipodi:nodetypes="ccsccsscscssccccscscssccsscscssccsscscsccscscc" /></g></g></svg>
