<?xml version="1.0" encoding="UTF-8" standalone="no"?>
<!-- Created with Inkscape (http://www.inkscape.org/) -->

<svg
   width="210mm"
   height="297mm"
   viewBox="0 0 210 297"
   version="1.1"
   id="svg5"
   xml:space="preserve"
   inkscape:version="1.2 (dc2aedaf03, 2022-05-15)"
   sodipodi:docname="blk - empire symbol v1.svg"
   xmlns:inkscape="http://www.inkscape.org/namespaces/inkscape"
   xmlns:sodipodi="http://sodipodi.sourceforge.net/DTD/sodipodi-0.dtd"
   xmlns="http://www.w3.org/2000/svg"
   xmlns:svg="http://www.w3.org/2000/svg"><sodipodi:namedview
     id="namedview7"
     pagecolor="#ffffff"
     bordercolor="#000000"
     borderopacity="0.25"
     inkscape:showpageshadow="2"
     inkscape:pageopacity="0.0"
     inkscape:pagecheckerboard="0"
     inkscape:deskcolor="#d1d1d1"
     inkscape:document-units="mm"
     showgrid="true"
     inkscape:zoom="0.25"
     inkscape:cx="-898"
     inkscape:cy="1352"
     inkscape:window-width="1920"
     inkscape:window-height="1009"
     inkscape:window-x="-8"
     inkscape:window-y="133"
     inkscape:window-maximized="1"
     inkscape:current-layer="layer1"><inkscape:grid
       type="xygrid"
       id="grid400" /></sodipodi:namedview><defs
     id="defs2" /><g
     inkscape:label="Layer 1"
     inkscape:groupmode="layer"
     id="layer1"><g
       id="g2406-6-2"
       transform="matrix(0.62479157,0,0,0.62479157,456.14449,119.94723)"><g
         id="g1975-2-9-52-1"
         transform="rotate(-60.799911,-584.43134,345.18531)" /><g
         id="g1975-4-4-8"
         transform="rotate(-119.79231,-468.38488,172.80047)" /><g
         id="g1975-2-9-5-3-2"
         transform="matrix(-0.48786102,-0.87292132,-0.87292132,0.48786102,-523.40752,-333.38159)"><path
           style="fill:#000000;fill-opacity:0;stroke:#000000;stroke-width:0.2"
           d="m -325.70605,231.35014 c 6.91667,10.93602 16.05421,20.65755 28.01551,27.60224 11.75256,6.82349 24.92874,10.19276 37.6311,10.87175 l 6.58961,0.12594 c 12.93637,-0.29456 25.9919,-3.62514 38.10608,-10.29955 11.90275,-6.55797 21.56229,-15.60873 28.68789,-26.14613 1.4283,-2.31546 2.85668,-4.63087 4.28499,-6.94633 6.20084,-11.35722 9.83022,-24.33285 10.09218,-38.16153 0.25738,-13.58737 -2.76498,-26.4749 -8.34017,-37.90854 l -5.80496,2.04773 c 2.72745,5.11848 4.58622,10.41281 5.72005,15.85388 l -9.65134,2.07169 c 1.39694,5.64124 2.08664,11.55565 1.97134,17.64182 -0.12013,6.34171 -1.10657,12.46394 -2.84447,18.25627 l 9.51339,3.02885 c -1.41078,4.81169 -3.36833,9.47565 -6.18172,13.90833 l 5.52571,3.26148 c -1.4283,2.31545 -2.85669,4.63087 -4.28499,6.94632 l -4.67153,-4.0084 c -3.07432,4.91796 -6.73455,9.17092 -10.88373,12.8689 l -6.61191,-7.3296 c -4.19132,4.02588 -8.97234,7.57523 -14.30395,10.5127 -5.55543,3.06085 -11.35305,5.26141 -17.23979,6.64615 l -4.96574,-10.56931 -21.76177,-0.16106 6.14304,-27.55567 c -6.63523,-1.4444 -10.59586,-4.42513 -14.71405,-8.98336 l -21.6904,17.93108 -11.0446,-18.75149 27.30766,-8.94022 c -2.17056,-6.4344 -1.56587,-11.93567 0.22825,-17.81088 l -26.91518,-9.58155 11.85789,-18.29897 20.65026,18.52363 c 4.55676,-5.03476 8.3649,-7.12979 14.36851,-8.4312 l -3.78361,-27.79607 20.59379,0.36261 -5.7573,27.01505 c 6.65826,1.33423 12.12034,4.56936 16.3135,9.05869 l 20.77073,-17.9391 10.73231,18.93195 -26.14628,8.47874 c 2.06361,6.46947 1.64146,13.21736 -0.2498,19.06201 l 25.90772,9.09534 -11.28639,18.60694 -20.41207,-18.45316 c -4.63956,4.95855 -10.28339,7.63956 -16.30773,8.84131 l 5.19552,26.79538 4.96574,10.56931 2.12309,9.75557 c -4.87372,1.17881 -9.89227,1.81009 -15.13754,1.58431 l -0.0686,6.41605 -6.58961,-0.12593 1.02905,-6.06892 c -5.79892,-0.10149 -11.3297,-1.04776 -16.6367,-2.69899 l 2.87605,-9.44291 c -5.60975,-1.51845 -11.11484,-3.78776 -16.37913,-6.84427 -5.48532,-3.1848 -10.35809,-7.02027 -14.57752,-11.35244 l -7.26777,6.84531 c -3.52106,-3.56999 -6.64745,-7.54619 -9.15603,-12.15822 l -5.53458,3.24647 c -1.47814,-2.24938 -2.8088,-4.58119 -3.97902,-7.00266 -5.81308,-11.56048 -9.00143,-24.65146 -8.79541,-38.4811 0.20241,-13.58828 3.65904,-26.36619 9.61784,-37.60469 l 3.79985,-6.41555 c 7.02933,-10.86394 16.70696,-20.23853 28.73938,-27.05924 11.82243,-6.70169 24.59268,-10.18651 37.30138,-10.73417 l 8.02994,0.0273 c 12.92372,0.64351 25.88462,4.32513 37.8143,11.32398 11.72151,6.87671 21.1333,16.18484 27.972,26.91066 l -4.77799,3.8809 c -2.94051,-4.99912 -6.48466,-9.34929 -10.53256,-13.15788 l -6.80725,7.14853 c -4.08118,-4.1375 -8.76469,-7.81456 -14.01509,-10.89482 -5.47083,-3.2096 -11.20697,-5.56582 -17.05421,-7.10889 l 2.38555,-9.69473 c -4.84013,-1.30989 -9.83983,-2.07634 -15.08927,-1.99216 l 0.10452,-6.41559 -8.02994,-0.0273 0.96627,6.07922 c -5.79966,0.0416 -11.33993,0.9306 -16.66371,2.5269 l 2.7783,9.47213 c -5.62514,1.46038 -11.15339,3.67271 -16.449,6.6746 -5.51795,3.12791 -10.4301,6.91284 -14.69408,11.20116 l -7.19663,-6.92006 c -3.55777,3.53341 -6.72509,7.47708 -9.28121,12.06293 l -5.5007,-3.30347 -3.79985,6.41555 5.73234,2.24294 c -2.899,5.0233 -4.93585,10.2517 -6.2531,15.6513 l 9.57573,2.39701 c -1.58698,5.59074 -2.47636,11.47844 -2.56702,17.56503 -0.0945,6.34214 0.68428,12.49424 2.22523,18.34204 l -9.61041,2.70529 c 1.2472,4.85667 3.04584,9.58417 5.70766,14.10949 l -5.63286,3.07269"
           id="path645-7-3-72-9-3-2-0-4-9-0"
           sodipodi:nodetypes="cccsccccsccsccsccsccccsccccccccscccccccccccccccccccccccccccccccccsccsccccsccccccccscccccccsccccc" /></g><g
         id="g1975-4-5-6-1"
         transform="matrix(0.50602217,-0.86252047,-0.86252047,-0.50602217,-271.57055,-144.73809)" /></g></g></svg>
